<?xml version="1.0" encoding="utf-8" standalone="no"?>
<!DOCTYPE svg PUBLIC "-//W3C//DTD SVG 1.1//EN"
  "http://www.w3.org/Graphics/SVG/1.1/DTD/svg11.dtd">
<svg xmlns:xlink="http://www.w3.org/1999/xlink" width="1000.260625pt" height="330.541644pt" viewBox="0 0 1000.260625 330.541644" xmlns="http://www.w3.org/2000/svg" version="1.1">
 <metadata>
  <rdf:RDF xmlns:dc="http://purl.org/dc/elements/1.1/" xmlns:cc="http://creativecommons.org/ns#" xmlns:rdf="http://www.w3.org/1999/02/22-rdf-syntax-ns#">
   <cc:Work>
    <dc:type rdf:resource="http://purl.org/dc/dcmitype/StillImage"/>
    <dc:date>2024-07-04T09:19:51.434784</dc:date>
    <dc:format>image/svg+xml</dc:format>
    <dc:creator>
     <cc:Agent>
      <dc:title>Matplotlib v3.8.2, https://matplotlib.org/</dc:title>
     </cc:Agent>
    </dc:creator>
   </cc:Work>
  </rdf:RDF>
 </metadata>
 <defs>
  <style type="text/css">*{stroke-linejoin: round; stroke-linecap: butt}</style>
 </defs>
 <g id="figure_1">
  <g id="axes_1">
   <g id="patch_1">
    <path d="M 50.780625 273.99006 
L 993.060625 273.99006 
L 993.060625 31.48286 
L 50.780625 31.48286 
z
" style="fill: #ffffff"/>
   </g>
   <g id="matplotlib.axis_1">
    <g id="xtick_1">
     <g id="text_1">
      <!-- 0 -->
      <g transform="translate(48.235625 287.06881) scale(0.08 -0.08)">
       <defs>
        <path id="DejaVuSans-30" d="M 2034 4250 
Q 1547 4250 1301 3770 
Q 1056 3291 1056 2328 
Q 1056 1369 1301 889 
Q 1547 409 2034 409 
Q 2525 409 2770 889 
Q 3016 1369 3016 2328 
Q 3016 3291 2770 3770 
Q 2525 4250 2034 4250 
z
M 2034 4750 
Q 2819 4750 3233 4129 
Q 3647 3509 3647 2328 
Q 3647 1150 3233 529 
Q 2819 -91 2034 -91 
Q 1250 -91 836 529 
Q 422 1150 422 2328 
Q 422 3509 836 4129 
Q 1250 4750 2034 4750 
z
" transform="scale(0.015625)"/>
       </defs>
       <use xlink:href="#DejaVuSans-30"/>
      </g>
     </g>
    </g>
    <g id="xtick_2">
     <g id="text_2">
      <!-- 200 -->
      <g transform="translate(222.62753 287.06881) scale(0.08 -0.08)">
       <defs>
        <path id="DejaVuSans-32" d="M 1228 531 
L 3431 531 
L 3431 0 
L 469 0 
L 469 531 
Q 828 903 1448 1529 
Q 2069 2156 2228 2338 
Q 2531 2678 2651 2914 
Q 2772 3150 2772 3378 
Q 2772 3750 2511 3984 
Q 2250 4219 1831 4219 
Q 1534 4219 1204 4116 
Q 875 4013 500 3803 
L 500 4441 
Q 881 4594 1212 4672 
Q 1544 4750 1819 4750 
Q 2544 4750 2975 4387 
Q 3406 4025 3406 3419 
Q 3406 3131 3298 2873 
Q 3191 2616 2906 2266 
Q 2828 2175 2409 1742 
Q 1991 1309 1228 531 
z
" transform="scale(0.015625)"/>
       </defs>
       <use xlink:href="#DejaVuSans-32"/>
       <use xlink:href="#DejaVuSans-30" x="63.623047"/>
       <use xlink:href="#DejaVuSans-30" x="127.246094"/>
      </g>
     </g>
    </g>
    <g id="xtick_3">
     <g id="text_3">
      <!-- 400 -->
      <g transform="translate(402.109435 287.06881) scale(0.08 -0.08)">
       <defs>
        <path id="DejaVuSans-34" d="M 2419 4116 
L 825 1625 
L 2419 1625 
L 2419 4116 
z
M 2253 4666 
L 3047 4666 
L 3047 1625 
L 3713 1625 
L 3713 1100 
L 3047 1100 
L 3047 0 
L 2419 0 
L 2419 1100 
L 313 1100 
L 313 1709 
L 2253 4666 
z
" transform="scale(0.015625)"/>
       </defs>
       <use xlink:href="#DejaVuSans-34"/>
       <use xlink:href="#DejaVuSans-30" x="63.623047"/>
       <use xlink:href="#DejaVuSans-30" x="127.246094"/>
      </g>
     </g>
    </g>
    <g id="xtick_4">
     <g id="text_4">
      <!-- 600 -->
      <g transform="translate(581.591339 287.06881) scale(0.08 -0.08)">
       <defs>
        <path id="DejaVuSans-36" d="M 2113 2584 
Q 1688 2584 1439 2293 
Q 1191 2003 1191 1497 
Q 1191 994 1439 701 
Q 1688 409 2113 409 
Q 2538 409 2786 701 
Q 3034 994 3034 1497 
Q 3034 2003 2786 2293 
Q 2538 2584 2113 2584 
z
M 3366 4563 
L 3366 3988 
Q 3128 4100 2886 4159 
Q 2644 4219 2406 4219 
Q 1781 4219 1451 3797 
Q 1122 3375 1075 2522 
Q 1259 2794 1537 2939 
Q 1816 3084 2150 3084 
Q 2853 3084 3261 2657 
Q 3669 2231 3669 1497 
Q 3669 778 3244 343 
Q 2819 -91 2113 -91 
Q 1303 -91 875 529 
Q 447 1150 447 2328 
Q 447 3434 972 4092 
Q 1497 4750 2381 4750 
Q 2619 4750 2861 4703 
Q 3103 4656 3366 4563 
z
" transform="scale(0.015625)"/>
       </defs>
       <use xlink:href="#DejaVuSans-36"/>
       <use xlink:href="#DejaVuSans-30" x="63.623047"/>
       <use xlink:href="#DejaVuSans-30" x="127.246094"/>
      </g>
     </g>
    </g>
    <g id="xtick_5">
     <g id="text_5">
      <!-- 800 -->
      <g transform="translate(761.073244 287.06881) scale(0.08 -0.08)">
       <defs>
        <path id="DejaVuSans-38" d="M 2034 2216 
Q 1584 2216 1326 1975 
Q 1069 1734 1069 1313 
Q 1069 891 1326 650 
Q 1584 409 2034 409 
Q 2484 409 2743 651 
Q 3003 894 3003 1313 
Q 3003 1734 2745 1975 
Q 2488 2216 2034 2216 
z
M 1403 2484 
Q 997 2584 770 2862 
Q 544 3141 544 3541 
Q 544 4100 942 4425 
Q 1341 4750 2034 4750 
Q 2731 4750 3128 4425 
Q 3525 4100 3525 3541 
Q 3525 3141 3298 2862 
Q 3072 2584 2669 2484 
Q 3125 2378 3379 2068 
Q 3634 1759 3634 1313 
Q 3634 634 3220 271 
Q 2806 -91 2034 -91 
Q 1263 -91 848 271 
Q 434 634 434 1313 
Q 434 1759 690 2068 
Q 947 2378 1403 2484 
z
M 1172 3481 
Q 1172 3119 1398 2916 
Q 1625 2713 2034 2713 
Q 2441 2713 2670 2916 
Q 2900 3119 2900 3481 
Q 2900 3844 2670 4047 
Q 2441 4250 2034 4250 
Q 1625 4250 1398 4047 
Q 1172 3844 1172 3481 
z
" transform="scale(0.015625)"/>
       </defs>
       <use xlink:href="#DejaVuSans-38"/>
       <use xlink:href="#DejaVuSans-30" x="63.623047"/>
       <use xlink:href="#DejaVuSans-30" x="127.246094"/>
      </g>
     </g>
    </g>
    <g id="xtick_6">
     <g id="text_6">
      <!-- 1000 -->
      <g transform="translate(938.010149 287.06881) scale(0.08 -0.08)">
       <defs>
        <path id="DejaVuSans-31" d="M 794 531 
L 1825 531 
L 1825 4091 
L 703 3866 
L 703 4441 
L 1819 4666 
L 2450 4666 
L 2450 531 
L 3481 531 
L 3481 0 
L 794 0 
L 794 531 
z
" transform="scale(0.015625)"/>
       </defs>
       <use xlink:href="#DejaVuSans-31"/>
       <use xlink:href="#DejaVuSans-30" x="63.623047"/>
       <use xlink:href="#DejaVuSans-30" x="127.246094"/>
       <use xlink:href="#DejaVuSans-30" x="190.869141"/>
      </g>
     </g>
    </g>
    <g id="text_7">
     <!-- Fragment Length (bp) -->
     <g transform="translate(467.362813 300.330997) scale(0.1 -0.1)">
      <defs>
       <path id="DejaVuSans-46" d="M 628 4666 
L 3309 4666 
L 3309 4134 
L 1259 4134 
L 1259 2759 
L 3109 2759 
L 3109 2228 
L 1259 2228 
L 1259 0 
L 628 0 
L 628 4666 
z
" transform="scale(0.015625)"/>
       <path id="DejaVuSans-72" d="M 2631 2963 
Q 2534 3019 2420 3045 
Q 2306 3072 2169 3072 
Q 1681 3072 1420 2755 
Q 1159 2438 1159 1844 
L 1159 0 
L 581 0 
L 581 3500 
L 1159 3500 
L 1159 2956 
Q 1341 3275 1631 3429 
Q 1922 3584 2338 3584 
Q 2397 3584 2469 3576 
Q 2541 3569 2628 3553 
L 2631 2963 
z
" transform="scale(0.015625)"/>
       <path id="DejaVuSans-61" d="M 2194 1759 
Q 1497 1759 1228 1600 
Q 959 1441 959 1056 
Q 959 750 1161 570 
Q 1363 391 1709 391 
Q 2188 391 2477 730 
Q 2766 1069 2766 1631 
L 2766 1759 
L 2194 1759 
z
M 3341 1997 
L 3341 0 
L 2766 0 
L 2766 531 
Q 2569 213 2275 61 
Q 1981 -91 1556 -91 
Q 1019 -91 701 211 
Q 384 513 384 1019 
Q 384 1609 779 1909 
Q 1175 2209 1959 2209 
L 2766 2209 
L 2766 2266 
Q 2766 2663 2505 2880 
Q 2244 3097 1772 3097 
Q 1472 3097 1187 3025 
Q 903 2953 641 2809 
L 641 3341 
Q 956 3463 1253 3523 
Q 1550 3584 1831 3584 
Q 2591 3584 2966 3190 
Q 3341 2797 3341 1997 
z
" transform="scale(0.015625)"/>
       <path id="DejaVuSans-67" d="M 2906 1791 
Q 2906 2416 2648 2759 
Q 2391 3103 1925 3103 
Q 1463 3103 1205 2759 
Q 947 2416 947 1791 
Q 947 1169 1205 825 
Q 1463 481 1925 481 
Q 2391 481 2648 825 
Q 2906 1169 2906 1791 
z
M 3481 434 
Q 3481 -459 3084 -895 
Q 2688 -1331 1869 -1331 
Q 1566 -1331 1297 -1286 
Q 1028 -1241 775 -1147 
L 775 -588 
Q 1028 -725 1275 -790 
Q 1522 -856 1778 -856 
Q 2344 -856 2625 -561 
Q 2906 -266 2906 331 
L 2906 616 
Q 2728 306 2450 153 
Q 2172 0 1784 0 
Q 1141 0 747 490 
Q 353 981 353 1791 
Q 353 2603 747 3093 
Q 1141 3584 1784 3584 
Q 2172 3584 2450 3431 
Q 2728 3278 2906 2969 
L 2906 3500 
L 3481 3500 
L 3481 434 
z
" transform="scale(0.015625)"/>
       <path id="DejaVuSans-6d" d="M 3328 2828 
Q 3544 3216 3844 3400 
Q 4144 3584 4550 3584 
Q 5097 3584 5394 3201 
Q 5691 2819 5691 2113 
L 5691 0 
L 5113 0 
L 5113 2094 
Q 5113 2597 4934 2840 
Q 4756 3084 4391 3084 
Q 3944 3084 3684 2787 
Q 3425 2491 3425 1978 
L 3425 0 
L 2847 0 
L 2847 2094 
Q 2847 2600 2669 2842 
Q 2491 3084 2119 3084 
Q 1678 3084 1418 2786 
Q 1159 2488 1159 1978 
L 1159 0 
L 581 0 
L 581 3500 
L 1159 3500 
L 1159 2956 
Q 1356 3278 1631 3431 
Q 1906 3584 2284 3584 
Q 2666 3584 2933 3390 
Q 3200 3197 3328 2828 
z
" transform="scale(0.015625)"/>
       <path id="DejaVuSans-65" d="M 3597 1894 
L 3597 1613 
L 953 1613 
Q 991 1019 1311 708 
Q 1631 397 2203 397 
Q 2534 397 2845 478 
Q 3156 559 3463 722 
L 3463 178 
Q 3153 47 2828 -22 
Q 2503 -91 2169 -91 
Q 1331 -91 842 396 
Q 353 884 353 1716 
Q 353 2575 817 3079 
Q 1281 3584 2069 3584 
Q 2775 3584 3186 3129 
Q 3597 2675 3597 1894 
z
M 3022 2063 
Q 3016 2534 2758 2815 
Q 2500 3097 2075 3097 
Q 1594 3097 1305 2825 
Q 1016 2553 972 2059 
L 3022 2063 
z
" transform="scale(0.015625)"/>
       <path id="DejaVuSans-6e" d="M 3513 2113 
L 3513 0 
L 2938 0 
L 2938 2094 
Q 2938 2591 2744 2837 
Q 2550 3084 2163 3084 
Q 1697 3084 1428 2787 
Q 1159 2491 1159 1978 
L 1159 0 
L 581 0 
L 581 3500 
L 1159 3500 
L 1159 2956 
Q 1366 3272 1645 3428 
Q 1925 3584 2291 3584 
Q 2894 3584 3203 3211 
Q 3513 2838 3513 2113 
z
" transform="scale(0.015625)"/>
       <path id="DejaVuSans-74" d="M 1172 4494 
L 1172 3500 
L 2356 3500 
L 2356 3053 
L 1172 3053 
L 1172 1153 
Q 1172 725 1289 603 
Q 1406 481 1766 481 
L 2356 481 
L 2356 0 
L 1766 0 
Q 1100 0 847 248 
Q 594 497 594 1153 
L 594 3053 
L 172 3053 
L 172 3500 
L 594 3500 
L 594 4494 
L 1172 4494 
z
" transform="scale(0.015625)"/>
       <path id="DejaVuSans-20" transform="scale(0.015625)"/>
       <path id="DejaVuSans-4c" d="M 628 4666 
L 1259 4666 
L 1259 531 
L 3531 531 
L 3531 0 
L 628 0 
L 628 4666 
z
" transform="scale(0.015625)"/>
       <path id="DejaVuSans-68" d="M 3513 2113 
L 3513 0 
L 2938 0 
L 2938 2094 
Q 2938 2591 2744 2837 
Q 2550 3084 2163 3084 
Q 1697 3084 1428 2787 
Q 1159 2491 1159 1978 
L 1159 0 
L 581 0 
L 581 4863 
L 1159 4863 
L 1159 2956 
Q 1366 3272 1645 3428 
Q 1925 3584 2291 3584 
Q 2894 3584 3203 3211 
Q 3513 2838 3513 2113 
z
" transform="scale(0.015625)"/>
       <path id="DejaVuSans-28" d="M 1984 4856 
Q 1566 4138 1362 3434 
Q 1159 2731 1159 2009 
Q 1159 1288 1364 580 
Q 1569 -128 1984 -844 
L 1484 -844 
Q 1016 -109 783 600 
Q 550 1309 550 2009 
Q 550 2706 781 3412 
Q 1013 4119 1484 4856 
L 1984 4856 
z
" transform="scale(0.015625)"/>
       <path id="DejaVuSans-62" d="M 3116 1747 
Q 3116 2381 2855 2742 
Q 2594 3103 2138 3103 
Q 1681 3103 1420 2742 
Q 1159 2381 1159 1747 
Q 1159 1113 1420 752 
Q 1681 391 2138 391 
Q 2594 391 2855 752 
Q 3116 1113 3116 1747 
z
M 1159 2969 
Q 1341 3281 1617 3432 
Q 1894 3584 2278 3584 
Q 2916 3584 3314 3078 
Q 3713 2572 3713 1747 
Q 3713 922 3314 415 
Q 2916 -91 2278 -91 
Q 1894 -91 1617 61 
Q 1341 213 1159 525 
L 1159 0 
L 581 0 
L 581 4863 
L 1159 4863 
L 1159 2969 
z
" transform="scale(0.015625)"/>
       <path id="DejaVuSans-70" d="M 1159 525 
L 1159 -1331 
L 581 -1331 
L 581 3500 
L 1159 3500 
L 1159 2969 
Q 1341 3281 1617 3432 
Q 1894 3584 2278 3584 
Q 2916 3584 3314 3078 
Q 3713 2572 3713 1747 
Q 3713 922 3314 415 
Q 2916 -91 2278 -91 
Q 1894 -91 1617 61 
Q 1341 213 1159 525 
z
M 3116 1747 
Q 3116 2381 2855 2742 
Q 2594 3103 2138 3103 
Q 1681 3103 1420 2742 
Q 1159 2381 1159 1747 
Q 1159 1113 1420 752 
Q 1681 391 2138 391 
Q 2594 391 2855 752 
Q 3116 1113 3116 1747 
z
" transform="scale(0.015625)"/>
       <path id="DejaVuSans-29" d="M 513 4856 
L 1013 4856 
Q 1481 4119 1714 3412 
Q 1947 2706 1947 2009 
Q 1947 1309 1714 600 
Q 1481 -109 1013 -844 
L 513 -844 
Q 928 -128 1133 580 
Q 1338 1288 1338 2009 
Q 1338 2731 1133 3434 
Q 928 4138 513 4856 
z
" transform="scale(0.015625)"/>
      </defs>
      <use xlink:href="#DejaVuSans-46"/>
      <use xlink:href="#DejaVuSans-72" x="50.269531"/>
      <use xlink:href="#DejaVuSans-61" x="91.382812"/>
      <use xlink:href="#DejaVuSans-67" x="152.662109"/>
      <use xlink:href="#DejaVuSans-6d" x="216.138672"/>
      <use xlink:href="#DejaVuSans-65" x="313.550781"/>
      <use xlink:href="#DejaVuSans-6e" x="375.074219"/>
      <use xlink:href="#DejaVuSans-74" x="438.453125"/>
      <use xlink:href="#DejaVuSans-20" x="477.662109"/>
      <use xlink:href="#DejaVuSans-4c" x="509.449219"/>
      <use xlink:href="#DejaVuSans-65" x="563.412109"/>
      <use xlink:href="#DejaVuSans-6e" x="624.935547"/>
      <use xlink:href="#DejaVuSans-67" x="688.314453"/>
      <use xlink:href="#DejaVuSans-74" x="751.791016"/>
      <use xlink:href="#DejaVuSans-68" x="791"/>
      <use xlink:href="#DejaVuSans-20" x="854.378906"/>
      <use xlink:href="#DejaVuSans-28" x="886.166016"/>
      <use xlink:href="#DejaVuSans-62" x="925.179688"/>
      <use xlink:href="#DejaVuSans-70" x="988.65625"/>
      <use xlink:href="#DejaVuSans-29" x="1052.132812"/>
     </g>
    </g>
   </g>
   <g id="matplotlib.axis_2">
    <g id="ytick_1">
     <g id="line2d_1">
      <path d="M 50.780625 273.99006 
L 993.060625 273.99006 
" clip-path="url(#p346c1f4858)" style="fill: none; stroke: #dedede; stroke-linecap: square"/>
     </g>
     <g id="text_8">
      <!-- 0.000 -->
      <g transform="translate(20.878125 277.029435) scale(0.08 -0.08)">
       <defs>
        <path id="DejaVuSans-2e" d="M 684 794 
L 1344 794 
L 1344 0 
L 684 0 
L 684 794 
z
" transform="scale(0.015625)"/>
       </defs>
       <use xlink:href="#DejaVuSans-30"/>
       <use xlink:href="#DejaVuSans-2e" x="63.623047"/>
       <use xlink:href="#DejaVuSans-30" x="95.410156"/>
       <use xlink:href="#DejaVuSans-30" x="159.033203"/>
       <use xlink:href="#DejaVuSans-30" x="222.65625"/>
      </g>
     </g>
    </g>
    <g id="ytick_2">
     <g id="line2d_2">
      <path d="M 50.780625 245.018574 
L 993.060625 245.018574 
" clip-path="url(#p346c1f4858)" style="fill: none; stroke: #dedede; stroke-linecap: square"/>
     </g>
     <g id="text_9">
      <!-- 0.002 -->
      <g transform="translate(20.878125 248.057949) scale(0.08 -0.08)">
       <use xlink:href="#DejaVuSans-30"/>
       <use xlink:href="#DejaVuSans-2e" x="63.623047"/>
       <use xlink:href="#DejaVuSans-30" x="95.410156"/>
       <use xlink:href="#DejaVuSans-30" x="159.033203"/>
       <use xlink:href="#DejaVuSans-32" x="222.65625"/>
      </g>
     </g>
    </g>
    <g id="ytick_3">
     <g id="line2d_3">
      <path d="M 50.780625 216.047088 
L 993.060625 216.047088 
" clip-path="url(#p346c1f4858)" style="fill: none; stroke: #dedede; stroke-linecap: square"/>
     </g>
     <g id="text_10">
      <!-- 0.004 -->
      <g transform="translate(20.878125 219.086463) scale(0.08 -0.08)">
       <use xlink:href="#DejaVuSans-30"/>
       <use xlink:href="#DejaVuSans-2e" x="63.623047"/>
       <use xlink:href="#DejaVuSans-30" x="95.410156"/>
       <use xlink:href="#DejaVuSans-30" x="159.033203"/>
       <use xlink:href="#DejaVuSans-34" x="222.65625"/>
      </g>
     </g>
    </g>
    <g id="ytick_4">
     <g id="line2d_4">
      <path d="M 50.780625 187.075602 
L 993.060625 187.075602 
" clip-path="url(#p346c1f4858)" style="fill: none; stroke: #dedede; stroke-linecap: square"/>
     </g>
     <g id="text_11">
      <!-- 0.006 -->
      <g transform="translate(20.878125 190.114977) scale(0.08 -0.08)">
       <use xlink:href="#DejaVuSans-30"/>
       <use xlink:href="#DejaVuSans-2e" x="63.623047"/>
       <use xlink:href="#DejaVuSans-30" x="95.410156"/>
       <use xlink:href="#DejaVuSans-30" x="159.033203"/>
       <use xlink:href="#DejaVuSans-36" x="222.65625"/>
      </g>
     </g>
    </g>
    <g id="ytick_5">
     <g id="line2d_5">
      <path d="M 50.780625 158.104116 
L 993.060625 158.104116 
" clip-path="url(#p346c1f4858)" style="fill: none; stroke: #dedede; stroke-linecap: square"/>
     </g>
     <g id="text_12">
      <!-- 0.008 -->
      <g transform="translate(20.878125 161.143491) scale(0.08 -0.08)">
       <use xlink:href="#DejaVuSans-30"/>
       <use xlink:href="#DejaVuSans-2e" x="63.623047"/>
       <use xlink:href="#DejaVuSans-30" x="95.410156"/>
       <use xlink:href="#DejaVuSans-30" x="159.033203"/>
       <use xlink:href="#DejaVuSans-38" x="222.65625"/>
      </g>
     </g>
    </g>
    <g id="ytick_6">
     <g id="line2d_6">
      <path d="M 50.780625 129.13263 
L 993.060625 129.13263 
" clip-path="url(#p346c1f4858)" style="fill: none; stroke: #dedede; stroke-linecap: square"/>
     </g>
     <g id="text_13">
      <!-- 0.010 -->
      <g transform="translate(20.878125 132.172005) scale(0.08 -0.08)">
       <use xlink:href="#DejaVuSans-30"/>
       <use xlink:href="#DejaVuSans-2e" x="63.623047"/>
       <use xlink:href="#DejaVuSans-30" x="95.410156"/>
       <use xlink:href="#DejaVuSans-31" x="159.033203"/>
       <use xlink:href="#DejaVuSans-30" x="222.65625"/>
      </g>
     </g>
    </g>
    <g id="ytick_7">
     <g id="line2d_7">
      <path d="M 50.780625 100.161144 
L 993.060625 100.161144 
" clip-path="url(#p346c1f4858)" style="fill: none; stroke: #dedede; stroke-linecap: square"/>
     </g>
     <g id="text_14">
      <!-- 0.012 -->
      <g transform="translate(20.878125 103.200519) scale(0.08 -0.08)">
       <use xlink:href="#DejaVuSans-30"/>
       <use xlink:href="#DejaVuSans-2e" x="63.623047"/>
       <use xlink:href="#DejaVuSans-30" x="95.410156"/>
       <use xlink:href="#DejaVuSans-31" x="159.033203"/>
       <use xlink:href="#DejaVuSans-32" x="222.65625"/>
      </g>
     </g>
    </g>
    <g id="ytick_8">
     <g id="line2d_8">
      <path d="M 50.780625 71.189658 
L 993.060625 71.189658 
" clip-path="url(#p346c1f4858)" style="fill: none; stroke: #dedede; stroke-linecap: square"/>
     </g>
     <g id="text_15">
      <!-- 0.014 -->
      <g transform="translate(20.878125 74.229033) scale(0.08 -0.08)">
       <use xlink:href="#DejaVuSans-30"/>
       <use xlink:href="#DejaVuSans-2e" x="63.623047"/>
       <use xlink:href="#DejaVuSans-30" x="95.410156"/>
       <use xlink:href="#DejaVuSans-31" x="159.033203"/>
       <use xlink:href="#DejaVuSans-34" x="222.65625"/>
      </g>
     </g>
    </g>
    <g id="ytick_9">
     <g id="line2d_9">
      <path d="M 50.780625 42.218172 
L 993.060625 42.218172 
" clip-path="url(#p346c1f4858)" style="fill: none; stroke: #dedede; stroke-linecap: square"/>
     </g>
     <g id="text_16">
      <!-- 0.016 -->
      <g transform="translate(20.878125 45.257547) scale(0.08 -0.08)">
       <use xlink:href="#DejaVuSans-30"/>
       <use xlink:href="#DejaVuSans-2e" x="63.623047"/>
       <use xlink:href="#DejaVuSans-30" x="95.410156"/>
       <use xlink:href="#DejaVuSans-31" x="159.033203"/>
       <use xlink:href="#DejaVuSans-36" x="222.65625"/>
      </g>
     </g>
    </g>
    <g id="text_17">
     <!-- Fraction -->
     <g transform="translate(14.798437 172.695835) rotate(-90) scale(0.1 -0.1)">
      <defs>
       <path id="DejaVuSans-63" d="M 3122 3366 
L 3122 2828 
Q 2878 2963 2633 3030 
Q 2388 3097 2138 3097 
Q 1578 3097 1268 2742 
Q 959 2388 959 1747 
Q 959 1106 1268 751 
Q 1578 397 2138 397 
Q 2388 397 2633 464 
Q 2878 531 3122 666 
L 3122 134 
Q 2881 22 2623 -34 
Q 2366 -91 2075 -91 
Q 1284 -91 818 406 
Q 353 903 353 1747 
Q 353 2603 823 3093 
Q 1294 3584 2113 3584 
Q 2378 3584 2631 3529 
Q 2884 3475 3122 3366 
z
" transform="scale(0.015625)"/>
       <path id="DejaVuSans-69" d="M 603 3500 
L 1178 3500 
L 1178 0 
L 603 0 
L 603 3500 
z
M 603 4863 
L 1178 4863 
L 1178 4134 
L 603 4134 
L 603 4863 
z
" transform="scale(0.015625)"/>
       <path id="DejaVuSans-6f" d="M 1959 3097 
Q 1497 3097 1228 2736 
Q 959 2375 959 1747 
Q 959 1119 1226 758 
Q 1494 397 1959 397 
Q 2419 397 2687 759 
Q 2956 1122 2956 1747 
Q 2956 2369 2687 2733 
Q 2419 3097 1959 3097 
z
M 1959 3584 
Q 2709 3584 3137 3096 
Q 3566 2609 3566 1747 
Q 3566 888 3137 398 
Q 2709 -91 1959 -91 
Q 1206 -91 779 398 
Q 353 888 353 1747 
Q 353 2609 779 3096 
Q 1206 3584 1959 3584 
z
" transform="scale(0.015625)"/>
      </defs>
      <use xlink:href="#DejaVuSans-46"/>
      <use xlink:href="#DejaVuSans-72" x="50.269531"/>
      <use xlink:href="#DejaVuSans-61" x="91.382812"/>
      <use xlink:href="#DejaVuSans-63" x="152.662109"/>
      <use xlink:href="#DejaVuSans-74" x="207.642578"/>
      <use xlink:href="#DejaVuSans-69" x="246.851562"/>
      <use xlink:href="#DejaVuSans-6f" x="274.634766"/>
      <use xlink:href="#DejaVuSans-6e" x="335.816406"/>
     </g>
    </g>
   </g>
   <g id="line2d_10">
    <path d="M 50.780625 273.99006 
L 83.087368 273.99006 
L 84.882187 273.771254 
L 86.677006 273.676129 
L 90.266644 273.190134 
L 92.061463 273.487383 
L 93.856282 273.10253 
L 95.651101 273.039135 
L 97.44592 272.354301 
L 99.240739 271.507537 
L 101.035558 271.367981 
L 102.830377 270.836818 
L 104.625196 269.096848 
L 106.420015 268.530166 
L 108.214835 266.035113 
L 110.009654 268.211596 
L 111.804473 265.905147 
L 113.599292 263.307882 
L 115.394111 259.924882 
L 117.18893 258.690073 
L 118.983749 255.211902 
L 120.778568 250.927743 
L 122.573387 250.586894 
L 124.368206 245.00742 
L 126.163025 241.63398 
L 127.957844 235.14118 
L 129.752663 232.759869 
L 131.547482 224.087834 
L 133.342301 216.049116 
L 138.726758 201.34768 
L 140.521577 202.424985 
L 142.316396 192.205438 
L 144.111215 184.988206 
L 147.700854 175.427181 
L 149.495673 177.400429 
L 151.290492 174.994637 
L 153.085311 163.376202 
L 154.88013 147.971049 
L 156.674949 141.978442 
L 158.469768 146.285488 
L 160.264587 156.981471 
L 162.059406 156.130578 
L 163.854225 140.544208 
L 165.649044 138.714369 
L 167.443863 151.740819 
L 169.238682 147.115666 
L 171.033501 156.566309 
L 172.82832 157.07867 
L 174.623139 155.91083 
L 176.417958 147.53778 
L 178.212777 152.671817 
L 180.007596 157.07418 
L 181.802415 160.064471 
L 183.597235 162.064663 
L 185.392054 158.055878 
L 187.186873 175.044758 
L 188.981692 176.497823 
L 190.776511 170.985273 
L 192.57133 171.429116 
L 194.366149 175.675177 
L 196.160968 183.598299 
L 197.955787 186.929151 
L 199.750606 184.512639 
L 201.545425 177.691882 
L 203.340244 184.885358 
L 205.135063 187.800179 
L 206.929882 190.300563 
L 208.724701 186.520219 
L 210.51952 184.361698 
L 212.314339 190.956043 
L 214.109158 195.332331 
L 215.903977 200.242563 
L 217.698796 211.759743 
L 219.493615 201.365932 
L 221.288435 199.454249 
L 223.083254 208.228698 
L 224.878073 216.365629 
L 226.672892 218.15853 
L 228.467711 219.665337 
L 230.26253 222.118353 
L 232.057349 222.360699 
L 233.852168 221.976103 
L 235.646987 228.028681 
L 237.441806 230.045096 
L 239.236625 226.22057 
L 241.031444 228.833074 
L 242.826263 233.23674 
L 244.621082 230.585994 
L 246.415901 232.578363 
L 248.21072 233.514142 
L 250.005539 236.733743 
L 251.800358 236.790527 
L 253.595177 238.154215 
L 255.389996 240.274928 
L 257.184815 243.863046 
L 258.979635 243.730357 
L 260.774454 239.022201 
L 262.569273 239.640887 
L 264.364092 240.838278 
L 266.158911 242.402014 
L 267.95373 240.772803 
L 269.748549 244.807662 
L 271.543368 251.52557 
L 273.338187 247.269079 
L 276.030415 247.084675 
L 277.825235 251.578443 
L 279.620054 249.74701 
L 281.414873 250.058309 
L 283.209692 249.144258 
L 285.004511 251.999109 
L 286.79933 252.671537 
L 288.594149 255.778729 
L 290.388968 254.627836 
L 293.978606 258.130924 
L 295.773425 256.817791 
L 297.568244 255.110791 
L 299.363063 257.516149 
L 301.157882 258.779161 
L 302.952701 258.766268 
L 304.74752 259.452603 
L 306.542339 258.420059 
L 308.337158 260.250985 
L 310.131977 262.603629 
L 311.926796 261.839462 
L 313.721615 263.105458 
L 315.516435 262.728365 
L 317.311254 264.209982 
L 319.106073 263.980006 
L 320.900892 264.714419 
L 322.695711 263.979745 
L 324.49053 264.336819 
L 326.285349 261.291206 
L 328.080168 261.836464 
L 329.874987 265.199995 
L 331.669806 265.969029 
L 333.464625 267.613769 
L 335.259444 265.833949 
L 337.054263 268.752291 
L 338.849082 266.082771 
L 342.43872 267.830114 
L 344.233539 266.451085 
L 346.028358 266.186358 
L 347.823177 266.330738 
L 349.617996 267.564126 
L 351.412815 269.472189 
L 353.207635 269.998847 
L 355.002454 269.632444 
L 356.797273 267.755295 
L 358.592092 266.575808 
L 360.386911 266.049483 
L 362.18173 268.786868 
L 363.976549 270.278262 
L 365.771368 269.361068 
L 367.566187 269.228437 
L 369.361006 270.779831 
L 371.155825 271.292003 
L 372.950644 270.940666 
L 374.745463 270.705925 
L 376.540282 270.207919 
L 378.335101 269.456138 
L 380.12992 268.954961 
L 381.924739 269.723038 
L 383.719558 270.777224 
L 385.514377 270.878117 
L 387.309196 271.550748 
L 390.898835 271.390767 
L 392.693654 271.50661 
L 394.488473 271.416117 
L 396.283292 270.004467 
L 398.078111 270.394655 
L 399.87293 270.989324 
L 401.667749 272.635343 
L 403.462568 271.228628 
L 405.257387 270.836036 
L 408.847025 271.348657 
L 410.641844 271.28392 
L 412.436663 270.907986 
L 416.026301 272.749675 
L 417.82112 273.172569 
L 419.615939 272.775585 
L 421.410758 272.747419 
L 423.205577 272.505054 
L 425.000396 272.794165 
L 426.795215 272.741024 
L 428.590035 271.979265 
L 430.384854 271.866986 
L 432.179673 272.167333 
L 433.974492 272.964833 
L 435.769311 272.541516 
L 437.56413 272.660753 
L 439.358949 273.391031 
L 442.948587 273.691384 
L 444.743406 273.200296 
L 446.538225 272.554998 
L 450.127863 273.348611 
L 453.717501 273.234233 
L 455.51232 272.889588 
L 457.307139 273.079837 
L 459.101958 273.457415 
L 460.896777 273.102339 
L 462.691596 272.882732 
L 464.486415 273.295506 
L 466.281235 272.919639 
L 468.076054 273.002409 
L 469.870873 273.569436 
L 473.460511 273.500036 
L 475.25533 273.847541 
L 477.050149 273.661858 
L 480.639787 273.834002 
L 482.434606 273.501806 
L 486.024244 273.125615 
L 489.613882 273.346489 
L 491.408701 273.637074 
L 493.20352 273.647274 
L 494.998339 273.785194 
L 496.793158 273.762848 
L 498.587977 273.476888 
L 503.972435 273.725921 
L 505.767254 273.5894 
L 507.562073 273.142279 
L 509.356892 273.61877 
L 514.741349 273.940295 
L 516.536168 273.59758 
L 518.330987 273.687157 
L 520.125806 273.918397 
L 521.920625 273.692001 
L 523.715444 273.657002 
L 525.510263 273.920663 
L 527.305082 273.846469 
L 529.099901 273.966128 
L 530.89472 273.908913 
L 532.689539 273.635404 
L 534.484358 273.880657 
L 536.279177 273.661851 
L 538.073996 273.839631 
L 550.63773 273.934209 
L 552.432549 273.654954 
L 554.227368 273.934209 
L 556.022187 273.975008 
L 557.817006 273.864229 
L 564.996282 273.983449 
L 566.791101 273.771254 
L 568.58592 273.771254 
L 570.380739 273.99006 
L 577.560015 273.906653 
L 581.149654 273.752597 
L 582.944473 273.934455 
L 584.739292 273.99006 
L 586.534111 273.840799 
L 588.32893 273.840799 
L 590.123749 273.959895 
L 591.918568 273.809068 
L 593.713387 273.959895 
L 597.303025 273.950248 
L 602.687482 273.971524 
L 613.456396 273.99006 
L 615.251215 273.959895 
L 617.046035 273.809068 
L 618.840854 273.959895 
L 622.430492 273.959895 
L 624.225311 273.809068 
L 626.02013 273.959895 
L 633.199406 273.99006 
L 669.095787 273.918149 
L 670.890606 273.717272 
L 672.685425 273.944595 
L 674.480244 273.99006 
L 676.275063 273.869399 
L 678.069882 273.869399 
L 679.864701 273.99006 
L 699.607711 273.99006 
L 766.913425 273.971524 
L 768.708244 273.878846 
L 772.297882 273.99006 
L 948.190149 273.99006 
L 948.190149 273.99006 
" clip-path="url(#p346c1f4858)" style="fill: none; stroke: #7cb5ec; stroke-linecap: square"/>
   </g>
   <g id="line2d_11">
    <path d="M 50.780625 273.99006 
L 187.186873 273.88351 
L 194.366149 273.635223 
L 197.955787 273.366912 
L 201.545425 272.923375 
L 205.135063 272.210284 
L 206.929882 271.713075 
L 208.724701 271.095533 
L 210.51952 270.333974 
L 212.314339 269.401527 
L 214.109158 268.267974 
L 215.903977 266.899926 
L 217.698796 265.260835 
L 219.493615 263.311388 
L 221.288435 261.009893 
L 223.083254 258.313009 
L 224.878073 255.176556 
L 226.672892 251.556714 
L 228.467711 247.410894 
L 230.26253 242.699841 
L 232.057349 237.388788 
L 233.852168 231.449199 
L 235.646987 224.861228 
L 237.441806 217.615025 
L 239.236625 209.712617 
L 241.031444 201.16994 
L 244.621082 182.304722 
L 248.21072 161.469589 
L 258.979635 95.616966 
L 260.774454 85.646429 
L 262.569273 76.387142 
L 264.364092 67.994103 
L 266.158911 60.615065 
L 267.95373 54.38185 
L 269.748549 49.407446 
L 271.543368 45.78601 
L 273.338187 43.584177 
L 276.030415 43.030822 
L 277.825235 44.504022 
L 279.620054 47.422899 
L 281.414873 51.730959 
L 283.209692 57.347082 
L 285.004511 64.169867 
L 286.79933 72.073288 
L 288.594149 80.918283 
L 290.388968 90.55275 
L 293.978606 111.554181 
L 304.74752 177.25702 
L 308.337158 196.667481 
L 310.131977 205.519719 
L 311.926796 213.745159 
L 313.721615 221.320623 
L 315.516435 228.23713 
L 317.311254 234.499027 
L 319.106073 240.121234 
L 320.900892 245.128376 
L 322.695711 249.552032 
L 324.49053 253.429721 
L 326.285349 256.802436 
L 328.080168 259.713621 
L 329.874987 262.207313 
L 331.669806 264.327461 
L 333.464625 266.116668 
L 335.259444 267.615478 
L 337.054263 268.861904 
L 338.849082 269.890928 
L 340.643901 270.73436 
L 342.43872 271.420753 
L 346.028358 272.420327 
L 349.617996 273.055263 
L 353.207635 273.447444 
L 358.592092 273.761336 
L 365.771368 273.923966 
L 381.924739 273.987277 
L 611.661577 273.990059 
L 948.190149 273.990059 
L 948.190149 273.990059 
" clip-path="url(#p346c1f4858)" style="fill: none; stroke: #434348; stroke-linecap: square"/>
   </g>
   <g id="line2d_12">
    <path d="M 50.780625 273.99006 
L 187.186873 273.88351 
L 194.366149 273.635223 
L 197.955787 273.366912 
L 201.545425 272.923375 
L 205.135063 272.210284 
L 206.929882 271.713075 
L 208.724701 271.095533 
L 210.51952 270.333974 
L 212.314339 269.401527 
L 214.109158 268.267974 
L 215.903977 266.899926 
L 217.698796 265.260835 
L 219.493615 263.311388 
L 221.288435 261.009893 
L 223.083254 258.313009 
L 224.878073 255.176556 
L 226.672892 251.556714 
L 228.467711 247.410894 
L 230.26253 242.699841 
L 232.057349 237.388788 
L 233.852168 231.449199 
L 235.646987 224.861228 
L 237.441806 217.615025 
L 239.236625 209.712617 
L 241.031444 201.16994 
L 244.621082 182.304722 
L 248.21072 161.469589 
L 258.979635 95.616966 
L 260.774454 85.646429 
L 262.569273 76.387142 
L 264.364092 67.994103 
L 266.158911 60.615065 
L 267.95373 54.38185 
L 269.748549 49.407446 
L 271.543368 45.78601 
L 273.338187 43.584177 
L 276.030415 43.030822 
L 277.825235 44.504022 
L 279.620054 47.422899 
L 281.414873 51.730959 
L 283.209692 57.347082 
L 285.004511 64.169867 
L 286.79933 72.073288 
L 288.594149 80.918283 
L 290.388968 90.55275 
L 293.978606 111.554181 
L 304.74752 177.25702 
L 308.337158 196.667481 
L 310.131977 205.519719 
L 311.926796 213.745159 
L 313.721615 221.320623 
L 315.516435 228.23713 
L 317.311254 234.499027 
L 319.106073 240.121234 
L 320.900892 245.128376 
L 322.695711 249.552032 
L 324.49053 253.429721 
L 326.285349 256.802436 
L 328.080168 259.713621 
L 329.874987 262.207313 
L 331.669806 264.327461 
L 333.464625 266.116668 
L 335.259444 267.615478 
L 337.054263 268.861904 
L 338.849082 269.890928 
L 340.643901 270.73436 
L 342.43872 271.420753 
L 346.028358 272.420327 
L 349.617996 273.055263 
L 353.207635 273.447444 
L 358.592092 273.761336 
L 365.771368 273.923966 
L 381.924739 273.987277 
L 611.661577 273.990059 
L 948.190149 273.990059 
L 948.190149 273.990059 
" clip-path="url(#p346c1f4858)" style="fill: none; stroke: #90ed7d; stroke-linecap: square"/>
   </g>
   <g id="line2d_13">
    <path d="M 50.780625 273.99006 
L 83.087368 273.969094 
L 84.882187 273.770975 
L 88.471825 273.754219 
L 90.266644 273.566674 
L 92.061463 273.707407 
L 93.856282 273.130531 
L 95.651101 272.9279 
L 99.240739 271.298725 
L 101.035558 271.074008 
L 102.830377 271.050468 
L 104.625196 269.336283 
L 106.420015 269.033618 
L 110.009654 266.368763 
L 111.804473 262.990934 
L 113.599292 260.488058 
L 115.394111 256.881383 
L 117.18893 255.485392 
L 118.983749 254.47139 
L 120.778568 251.33262 
L 122.573387 245.965507 
L 124.368206 239.346681 
L 126.163025 236.306124 
L 127.957844 230.228485 
L 129.752663 224.868036 
L 131.547482 225.166008 
L 133.342301 217.077893 
L 135.13712 204.902916 
L 136.931939 196.830156 
L 138.726758 194.661496 
L 140.521577 188.546774 
L 142.316396 179.648182 
L 144.111215 173.62559 
L 145.906035 170.211734 
L 147.700854 171.681458 
L 149.495673 165.391459 
L 151.290492 157.631011 
L 153.085311 151.048835 
L 154.88013 143.321995 
L 156.674949 149.95632 
L 158.469768 157.547718 
L 162.059406 144.996836 
L 163.854225 151.263803 
L 165.649044 146.326772 
L 167.443863 149.650381 
L 169.238682 154.007403 
L 171.033501 154.919715 
L 172.82832 143.138026 
L 174.623139 140.675884 
L 176.417958 148.194274 
L 178.212777 166.084601 
L 180.007596 161.930959 
L 181.802415 150.939323 
L 183.597235 167.358912 
L 185.392054 168.572528 
L 187.186873 172.58363 
L 188.981692 173.359197 
L 190.776511 166.331149 
L 192.57133 170.744955 
L 194.366149 180.399413 
L 196.160968 181.733839 
L 197.955787 186.932917 
L 199.750606 188.234606 
L 201.545425 185.33036 
L 203.340244 191.22823 
L 205.135063 192.730981 
L 206.929882 199.538411 
L 208.724701 201.477183 
L 210.51952 203.232131 
L 212.314339 201.870905 
L 214.109158 199.623587 
L 215.903977 207.881185 
L 217.698796 209.112038 
L 219.493615 205.615904 
L 221.288435 208.679349 
L 223.083254 217.733663 
L 224.878073 211.024301 
L 226.672892 213.561769 
L 228.467711 217.317488 
L 230.26253 220.497253 
L 232.057349 220.533757 
L 233.852168 223.819413 
L 235.646987 226.566345 
L 237.441806 230.874405 
L 239.236625 229.409027 
L 241.031444 229.207675 
L 242.826263 231.76354 
L 244.621082 230.572232 
L 246.415901 236.602502 
L 248.21072 237.045186 
L 250.005539 240.239582 
L 251.800358 241.757688 
L 253.595177 242.641608 
L 255.389996 240.192938 
L 257.184815 242.716934 
L 258.979635 241.8123 
L 260.774454 241.918625 
L 262.569273 241.787819 
L 264.364092 243.324611 
L 266.158911 246.069659 
L 267.95373 247.507369 
L 269.748549 248.655799 
L 271.543368 248.639141 
L 276.030415 250.636 
L 277.825235 250.119728 
L 279.620054 251.434454 
L 281.414873 252.5613 
L 283.209692 253.11031 
L 285.004511 254.607846 
L 286.79933 254.788338 
L 288.594149 255.185972 
L 290.388968 258.120639 
L 292.183787 254.411854 
L 293.978606 256.165208 
L 295.773425 257.602918 
L 297.568244 256.80345 
L 299.363063 260.369246 
L 301.157882 259.256321 
L 302.952701 260.203964 
L 306.542339 261.183186 
L 308.337158 261.707236 
L 310.131977 258.624888 
L 311.926796 260.279377 
L 313.721615 262.256 
L 315.516435 261.798192 
L 317.311254 264.524163 
L 319.106073 262.646883 
L 320.900892 261.225006 
L 322.695711 264.27847 
L 324.49053 265.46071 
L 326.285349 263.644676 
L 328.080168 263.135212 
L 329.874987 264.276862 
L 331.669806 265.811076 
L 333.464625 267.051824 
L 335.259444 266.598434 
L 337.054263 265.471806 
L 338.849082 266.67715 
L 340.643901 267.012741 
L 342.43872 266.525455 
L 344.233539 266.481505 
L 346.028358 267.753499 
L 347.823177 268.545579 
L 349.617996 267.677753 
L 351.412815 267.228796 
L 353.207635 267.527869 
L 355.002454 268.70104 
L 356.797273 269.080451 
L 358.592092 268.28879 
L 360.386911 267.702147 
L 363.976549 268.801194 
L 365.771368 268.747626 
L 367.566187 269.817876 
L 369.361006 269.091503 
L 371.155825 269.439204 
L 372.950644 269.942642 
L 374.745463 269.458369 
L 376.540282 270.286258 
L 380.12992 270.613853 
L 381.924739 269.687157 
L 383.719558 269.322667 
L 385.514377 270.198243 
L 387.309196 270.143907 
L 389.104015 270.399928 
L 390.898835 270.82704 
L 392.693654 271.139193 
L 394.488473 271.821052 
L 396.283292 272.094745 
L 398.078111 271.600782 
L 399.87293 270.849261 
L 401.667749 270.754046 
L 405.257387 272.17533 
L 407.052206 271.859613 
L 408.847025 272.080462 
L 410.641844 272.006368 
L 412.436663 272.198739 
L 414.231482 272.005788 
L 416.026301 272.100627 
L 417.82112 272.345914 
L 419.615939 272.235547 
L 421.410758 272.650624 
L 423.205577 272.440723 
L 425.000396 272.434146 
L 428.590035 273.142895 
L 430.384854 273.06921 
L 432.179673 272.613523 
L 433.974492 272.401235 
L 435.769311 272.793428 
L 437.56413 272.812615 
L 441.153768 273.253001 
L 442.948587 273.196522 
L 444.743406 273.420197 
L 446.538225 273.041384 
L 448.333044 272.776614 
L 450.127863 273.028182 
L 451.922682 272.921535 
L 453.717501 273.402514 
L 455.51232 272.816548 
L 457.307139 273.260736 
L 459.101958 273.199918 
L 460.896777 273.023477 
L 464.486415 273.15087 
L 466.281235 272.985553 
L 468.076054 273.239234 
L 469.870873 273.379471 
L 471.665692 272.932237 
L 473.460511 273.285718 
L 475.25533 273.395022 
L 477.050149 273.141802 
L 478.844968 273.198581 
L 480.639787 273.517463 
L 482.434606 273.190853 
L 484.229425 272.992928 
L 487.819063 273.188974 
L 491.408701 273.756653 
L 493.20352 273.600275 
L 494.998339 273.556797 
L 496.793158 273.802685 
L 498.587977 273.864742 
L 502.177615 273.323652 
L 503.972435 273.086658 
L 507.562073 273.813044 
L 509.356892 273.611915 
L 511.151711 273.297924 
L 512.94653 273.580938 
L 514.741349 273.674356 
L 520.125806 273.532904 
L 521.920625 273.735328 
L 523.715444 273.51363 
L 525.510263 273.760021 
L 530.89472 273.958098 
L 534.484358 273.67946 
L 536.279177 273.780004 
L 541.663635 273.833882 
L 545.253273 273.937078 
L 548.842911 273.837493 
L 550.63773 273.98056 
L 554.227368 273.667177 
L 561.406644 273.974437 
L 564.996282 273.765509 
L 566.791101 273.87646 
L 568.58592 273.634069 
L 573.970377 273.942341 
L 577.560015 273.849462 
L 579.354835 273.624579 
L 581.149654 273.856658 
L 586.534111 273.955301 
L 588.32893 273.833323 
L 590.123749 273.963937 
L 591.918568 273.958405 
L 593.713387 273.800129 
L 595.508206 273.93016 
L 597.303025 273.926103 
L 599.097844 273.744133 
L 600.892663 273.764417 
L 602.687482 273.958405 
L 609.866758 273.987181 
L 624.225311 273.958405 
L 626.02013 273.800129 
L 627.814949 273.958405 
L 634.994225 273.99006 
L 685.249158 273.99006 
L 687.043977 273.86344 
L 688.838796 273.86344 
L 690.633615 273.99006 
L 948.190149 273.99006 
L 948.190149 273.99006 
" clip-path="url(#p346c1f4858)" style="fill: none; stroke: #f7a35c; stroke-linecap: square"/>
   </g>
   <g id="line2d_14">
    <path d="M 50.780625 273.99006 
L 84.882187 273.885173 
L 86.677006 273.550628 
L 88.471825 273.664841 
L 90.266644 273.134161 
L 92.061463 273.09153 
L 93.856282 272.627306 
L 95.651101 272.543554 
L 97.44592 272.053562 
L 99.240739 271.97376 
L 101.035558 272.264156 
L 102.830377 270.677402 
L 104.625196 269.518311 
L 106.420015 267.318014 
L 108.214835 266.193485 
L 110.009654 262.094469 
L 113.599292 261.300042 
L 115.394111 257.63189 
L 117.18893 255.156566 
L 118.983749 251.300461 
L 120.778568 250.929771 
L 122.573387 246.167149 
L 124.368206 238.732196 
L 126.163025 230.746061 
L 127.957844 225.394014 
L 129.752663 227.515451 
L 131.547482 217.201312 
L 133.342301 212.536468 
L 135.13712 199.566224 
L 136.931939 189.386078 
L 138.726758 184.285213 
L 140.521577 182.21578 
L 142.316396 180.566578 
L 144.111215 175.398934 
L 145.906035 157.26177 
L 147.700854 166.196721 
L 149.495673 165.243559 
L 151.290492 152.826235 
L 153.085311 145.93754 
L 154.88013 143.656905 
L 156.674949 143.892733 
L 158.469768 153.879349 
L 160.264587 154.87423 
L 162.059406 142.39708 
L 163.854225 141.946718 
L 165.649044 151.076937 
L 167.443863 162.774319 
L 169.238682 156.637 
L 171.033501 157.156314 
L 172.82832 148.174139 
L 174.623139 147.649755 
L 176.417958 154.444148 
L 178.212777 164.702082 
L 180.007596 168.177791 
L 181.802415 163.255246 
L 183.597235 169.936505 
L 185.392054 165.122748 
L 187.186873 167.730761 
L 188.981692 176.061512 
L 190.776511 181.229301 
L 192.57133 185.926882 
L 194.366149 182.317615 
L 196.160968 192.815143 
L 197.955787 194.95179 
L 199.750606 188.962949 
L 201.545425 183.99854 
L 203.340244 186.433014 
L 205.135063 186.817611 
L 208.724701 204.657238 
L 210.51952 200.928318 
L 212.314339 199.957194 
L 214.109158 204.755162 
L 215.903977 202.16091 
L 217.698796 209.534732 
L 219.493615 211.951824 
L 221.288435 215.44564 
L 223.083254 217.867077 
L 224.878073 221.858044 
L 226.672892 222.940998 
L 228.467711 222.076344 
L 230.26253 224.381315 
L 232.057349 222.753987 
L 233.852168 226.001401 
L 235.646987 227.112892 
L 237.441806 229.648331 
L 239.236625 230.938432 
L 241.031444 237.455278 
L 242.826263 234.189322 
L 244.621082 229.430321 
L 246.415901 234.773822 
L 248.21072 237.16368 
L 250.005539 239.293808 
L 251.800358 238.021091 
L 253.595177 235.718582 
L 255.389996 241.504188 
L 257.184815 241.743347 
L 258.979635 241.770581 
L 262.569273 246.254353 
L 264.364092 247.974245 
L 266.158911 246.554642 
L 267.95373 244.810559 
L 269.748549 242.753583 
L 271.543368 247.416689 
L 276.030415 251.734164 
L 277.825235 252.98834 
L 279.620054 253.396693 
L 281.414873 251.040442 
L 283.209692 250.485204 
L 285.004511 251.60611 
L 286.79933 253.869073 
L 288.594149 257.415473 
L 290.388968 257.893213 
L 292.183787 257.46965 
L 293.978606 257.889157 
L 295.773425 257.384908 
L 297.568244 257.633773 
L 299.363063 262.224986 
L 301.157882 261.639617 
L 302.952701 260.700883 
L 304.74752 259.34845 
L 306.542339 260.617894 
L 308.337158 261.359216 
L 310.131977 260.269135 
L 311.926796 258.223632 
L 313.721615 260.608087 
L 315.516435 258.785969 
L 317.311254 258.478002 
L 320.900892 263.022614 
L 322.695711 263.492966 
L 324.49053 265.056717 
L 326.285349 265.729826 
L 328.080168 265.379633 
L 329.874987 266.393157 
L 331.669806 264.759643 
L 333.464625 265.477586 
L 335.259444 265.833573 
L 337.054263 265.014621 
L 338.849082 264.406032 
L 340.643901 266.674716 
L 342.43872 265.782554 
L 344.233539 266.714147 
L 346.028358 266.705354 
L 347.823177 266.397372 
L 349.617996 264.56649 
L 351.412815 265.753698 
L 353.207635 266.784026 
L 355.002454 268.796936 
L 356.797273 269.204767 
L 358.592092 268.528747 
L 360.386911 268.2636 
L 362.18173 268.930552 
L 363.976549 270.004496 
L 365.771368 268.531513 
L 367.566187 270.429754 
L 369.361006 269.526133 
L 371.155825 268.757332 
L 372.950644 270.034076 
L 374.745463 270.991873 
L 376.540282 269.32526 
L 378.335101 268.454102 
L 380.12992 269.423589 
L 381.924739 269.565274 
L 383.719558 270.796316 
L 385.514377 270.759493 
L 387.309196 270.896673 
L 389.104015 270.854867 
L 390.898835 271.403066 
L 392.693654 270.154684 
L 394.488473 270.083675 
L 396.283292 271.357986 
L 398.078111 270.395148 
L 399.87293 270.008769 
L 401.667749 271.135471 
L 403.462568 271.255268 
L 405.257387 271.17535 
L 407.052206 271.70912 
L 412.436663 271.880067 
L 414.231482 272.378898 
L 416.026301 272.166638 
L 419.615939 271.32519 
L 423.205577 271.748522 
L 425.000396 272.32601 
L 426.795215 272.11278 
L 428.590035 271.505422 
L 430.384854 272.495059 
L 432.179673 272.990158 
L 433.974492 272.95925 
L 435.769311 272.205445 
L 437.56413 272.068816 
L 439.358949 272.378159 
L 441.153768 273.156165 
L 442.948587 273.042297 
L 444.743406 273.424428 
L 446.538225 272.631338 
L 448.333044 272.963047 
L 450.127863 273.525179 
L 451.922682 273.177617 
L 453.717501 272.566969 
L 457.307139 273.4304 
L 460.896777 272.760943 
L 462.691596 273.499156 
L 464.486415 273.722258 
L 468.076054 272.269241 
L 469.870873 272.843877 
L 471.665692 273.294504 
L 473.460511 273.000552 
L 475.25533 272.880186 
L 477.050149 273.658903 
L 480.639787 273.565564 
L 482.434606 273.713145 
L 486.024244 272.973022 
L 487.819063 272.862013 
L 489.613882 273.572028 
L 496.793158 273.852807 
L 498.587977 273.299955 
L 500.382796 272.963642 
L 502.177615 273.741375 
L 503.972435 273.974623 
L 509.356892 273.73268 
L 511.151711 273.918295 
L 514.741349 273.545968 
L 516.536168 273.514949 
L 518.330987 273.134368 
L 520.125806 273.640421 
L 523.715444 273.724632 
L 527.305082 273.920829 
L 529.099901 273.734352 
L 530.89472 273.163935 
L 532.689539 273.292224 
L 534.484358 273.10563 
L 539.868815 273.680127 
L 541.663635 273.960367 
L 543.458454 273.935824 
L 545.253273 273.53287 
L 547.048092 273.669841 
L 548.842911 273.933035 
L 550.63773 273.99006 
L 554.227368 273.933035 
L 557.817006 273.99006 
L 563.201463 273.395716 
L 564.996282 273.918891 
L 568.58592 273.99006 
L 572.175558 272.865698 
L 573.970377 273.795112 
L 575.765196 273.857924 
L 577.560015 273.653468 
L 579.354835 273.933961 
L 582.944473 273.99006 
L 588.32893 273.99006 
L 590.123749 273.803437 
L 591.918568 273.489043 
L 593.713387 273.927181 
L 599.097844 273.809292 
L 600.892663 273.886409 
L 602.687482 273.710303 
L 604.482301 273.943434 
L 609.866758 273.99006 
L 611.661577 273.951792 
L 615.251215 273.385589 
L 617.046035 273.895693 
L 620.635673 273.99006 
L 626.02013 273.646687 
L 627.814949 273.933961 
L 631.404587 273.99006 
L 634.994225 273.99006 
L 636.789044 273.803556 
L 638.583863 273.803556 
L 640.378682 273.99006 
L 642.173501 273.803556 
L 643.96832 273.803556 
L 645.763139 273.962939 
L 672.685425 273.959124 
L 674.480244 273.804445 
L 676.275063 273.959124 
L 683.454339 273.99006 
L 713.966263 273.959124 
L 715.761082 273.804445 
L 717.555901 273.959124 
L 725.632587 273.99006 
L 827.937273 273.943434 
L 829.732092 273.710303 
L 831.526911 273.943434 
L 836.911368 273.99006 
L 948.190149 273.99006 
L 948.190149 273.99006 
" clip-path="url(#p346c1f4858)" style="fill: none; stroke: #8085e9; stroke-linecap: square"/>
   </g>
   <g id="line2d_15">
    <path d="M 50.780625 273.99006 
L 993.060625 273.99006 
" clip-path="url(#p346c1f4858)" style="fill: none; stroke: #dedede; stroke-width: 2; stroke-linecap: square"/>
   </g>
   <g id="text_18">
    <!-- Salmon: Fragment Length Distribution -->
    <g transform="translate(369.159375 19.3575) scale(0.16 -0.16)">
     <defs>
      <path id="DejaVuSans-53" d="M 3425 4513 
L 3425 3897 
Q 3066 4069 2747 4153 
Q 2428 4238 2131 4238 
Q 1616 4238 1336 4038 
Q 1056 3838 1056 3469 
Q 1056 3159 1242 3001 
Q 1428 2844 1947 2747 
L 2328 2669 
Q 3034 2534 3370 2195 
Q 3706 1856 3706 1288 
Q 3706 609 3251 259 
Q 2797 -91 1919 -91 
Q 1588 -91 1214 -16 
Q 841 59 441 206 
L 441 856 
Q 825 641 1194 531 
Q 1563 422 1919 422 
Q 2459 422 2753 634 
Q 3047 847 3047 1241 
Q 3047 1584 2836 1778 
Q 2625 1972 2144 2069 
L 1759 2144 
Q 1053 2284 737 2584 
Q 422 2884 422 3419 
Q 422 4038 858 4394 
Q 1294 4750 2059 4750 
Q 2388 4750 2728 4690 
Q 3069 4631 3425 4513 
z
" transform="scale(0.015625)"/>
      <path id="DejaVuSans-6c" d="M 603 4863 
L 1178 4863 
L 1178 0 
L 603 0 
L 603 4863 
z
" transform="scale(0.015625)"/>
      <path id="DejaVuSans-3a" d="M 750 794 
L 1409 794 
L 1409 0 
L 750 0 
L 750 794 
z
M 750 3309 
L 1409 3309 
L 1409 2516 
L 750 2516 
L 750 3309 
z
" transform="scale(0.015625)"/>
      <path id="DejaVuSans-44" d="M 1259 4147 
L 1259 519 
L 2022 519 
Q 2988 519 3436 956 
Q 3884 1394 3884 2338 
Q 3884 3275 3436 3711 
Q 2988 4147 2022 4147 
L 1259 4147 
z
M 628 4666 
L 1925 4666 
Q 3281 4666 3915 4102 
Q 4550 3538 4550 2338 
Q 4550 1131 3912 565 
Q 3275 0 1925 0 
L 628 0 
L 628 4666 
z
" transform="scale(0.015625)"/>
      <path id="DejaVuSans-73" d="M 2834 3397 
L 2834 2853 
Q 2591 2978 2328 3040 
Q 2066 3103 1784 3103 
Q 1356 3103 1142 2972 
Q 928 2841 928 2578 
Q 928 2378 1081 2264 
Q 1234 2150 1697 2047 
L 1894 2003 
Q 2506 1872 2764 1633 
Q 3022 1394 3022 966 
Q 3022 478 2636 193 
Q 2250 -91 1575 -91 
Q 1294 -91 989 -36 
Q 684 19 347 128 
L 347 722 
Q 666 556 975 473 
Q 1284 391 1588 391 
Q 1994 391 2212 530 
Q 2431 669 2431 922 
Q 2431 1156 2273 1281 
Q 2116 1406 1581 1522 
L 1381 1569 
Q 847 1681 609 1914 
Q 372 2147 372 2553 
Q 372 3047 722 3315 
Q 1072 3584 1716 3584 
Q 2034 3584 2315 3537 
Q 2597 3491 2834 3397 
z
" transform="scale(0.015625)"/>
      <path id="DejaVuSans-75" d="M 544 1381 
L 544 3500 
L 1119 3500 
L 1119 1403 
Q 1119 906 1312 657 
Q 1506 409 1894 409 
Q 2359 409 2629 706 
Q 2900 1003 2900 1516 
L 2900 3500 
L 3475 3500 
L 3475 0 
L 2900 0 
L 2900 538 
Q 2691 219 2414 64 
Q 2138 -91 1772 -91 
Q 1169 -91 856 284 
Q 544 659 544 1381 
z
M 1991 3584 
L 1991 3584 
z
" transform="scale(0.015625)"/>
     </defs>
     <use xlink:href="#DejaVuSans-53"/>
     <use xlink:href="#DejaVuSans-61" x="63.476562"/>
     <use xlink:href="#DejaVuSans-6c" x="124.755859"/>
     <use xlink:href="#DejaVuSans-6d" x="152.539062"/>
     <use xlink:href="#DejaVuSans-6f" x="249.951172"/>
     <use xlink:href="#DejaVuSans-6e" x="311.132812"/>
     <use xlink:href="#DejaVuSans-3a" x="374.511719"/>
     <use xlink:href="#DejaVuSans-20" x="408.203125"/>
     <use xlink:href="#DejaVuSans-46" x="439.990234"/>
     <use xlink:href="#DejaVuSans-72" x="490.259766"/>
     <use xlink:href="#DejaVuSans-61" x="531.373047"/>
     <use xlink:href="#DejaVuSans-67" x="592.652344"/>
     <use xlink:href="#DejaVuSans-6d" x="656.128906"/>
     <use xlink:href="#DejaVuSans-65" x="753.541016"/>
     <use xlink:href="#DejaVuSans-6e" x="815.064453"/>
     <use xlink:href="#DejaVuSans-74" x="878.443359"/>
     <use xlink:href="#DejaVuSans-20" x="917.652344"/>
     <use xlink:href="#DejaVuSans-4c" x="949.439453"/>
     <use xlink:href="#DejaVuSans-65" x="1003.402344"/>
     <use xlink:href="#DejaVuSans-6e" x="1064.925781"/>
     <use xlink:href="#DejaVuSans-67" x="1128.304688"/>
     <use xlink:href="#DejaVuSans-74" x="1191.78125"/>
     <use xlink:href="#DejaVuSans-68" x="1230.990234"/>
     <use xlink:href="#DejaVuSans-20" x="1294.369141"/>
     <use xlink:href="#DejaVuSans-44" x="1326.15625"/>
     <use xlink:href="#DejaVuSans-69" x="1403.158203"/>
     <use xlink:href="#DejaVuSans-73" x="1430.941406"/>
     <use xlink:href="#DejaVuSans-74" x="1483.041016"/>
     <use xlink:href="#DejaVuSans-72" x="1522.25"/>
     <use xlink:href="#DejaVuSans-69" x="1563.363281"/>
     <use xlink:href="#DejaVuSans-62" x="1591.146484"/>
     <use xlink:href="#DejaVuSans-75" x="1654.623047"/>
     <use xlink:href="#DejaVuSans-74" x="1718.001953"/>
     <use xlink:href="#DejaVuSans-69" x="1757.210938"/>
     <use xlink:href="#DejaVuSans-6f" x="1784.994141"/>
     <use xlink:href="#DejaVuSans-6e" x="1846.175781"/>
    </g>
   </g>
   <g id="legend_1">
    <g id="line2d_16">
     <path d="M 57.980625 315.455394 
L 65.980625 315.455394 
L 73.980625 315.455394 
" style="fill: none; stroke: #7cb5ec; stroke-linecap: square"/>
    </g>
    <g id="text_19">
     <!-- RAP1_IAA_30M_REP1 -->
     <g transform="translate(80.380625 318.255394) scale(0.08 -0.08)">
      <defs>
       <path id="DejaVuSans-52" d="M 2841 2188 
Q 3044 2119 3236 1894 
Q 3428 1669 3622 1275 
L 4263 0 
L 3584 0 
L 2988 1197 
Q 2756 1666 2539 1819 
Q 2322 1972 1947 1972 
L 1259 1972 
L 1259 0 
L 628 0 
L 628 4666 
L 2053 4666 
Q 2853 4666 3247 4331 
Q 3641 3997 3641 3322 
Q 3641 2881 3436 2590 
Q 3231 2300 2841 2188 
z
M 1259 4147 
L 1259 2491 
L 2053 2491 
Q 2509 2491 2742 2702 
Q 2975 2913 2975 3322 
Q 2975 3731 2742 3939 
Q 2509 4147 2053 4147 
L 1259 4147 
z
" transform="scale(0.015625)"/>
       <path id="DejaVuSans-41" d="M 2188 4044 
L 1331 1722 
L 3047 1722 
L 2188 4044 
z
M 1831 4666 
L 2547 4666 
L 4325 0 
L 3669 0 
L 3244 1197 
L 1141 1197 
L 716 0 
L 50 0 
L 1831 4666 
z
" transform="scale(0.015625)"/>
       <path id="DejaVuSans-50" d="M 1259 4147 
L 1259 2394 
L 2053 2394 
Q 2494 2394 2734 2622 
Q 2975 2850 2975 3272 
Q 2975 3691 2734 3919 
Q 2494 4147 2053 4147 
L 1259 4147 
z
M 628 4666 
L 2053 4666 
Q 2838 4666 3239 4311 
Q 3641 3956 3641 3272 
Q 3641 2581 3239 2228 
Q 2838 1875 2053 1875 
L 1259 1875 
L 1259 0 
L 628 0 
L 628 4666 
z
" transform="scale(0.015625)"/>
       <path id="DejaVuSans-5f" d="M 3263 -1063 
L 3263 -1509 
L -63 -1509 
L -63 -1063 
L 3263 -1063 
z
" transform="scale(0.015625)"/>
       <path id="DejaVuSans-49" d="M 628 4666 
L 1259 4666 
L 1259 0 
L 628 0 
L 628 4666 
z
" transform="scale(0.015625)"/>
       <path id="DejaVuSans-33" d="M 2597 2516 
Q 3050 2419 3304 2112 
Q 3559 1806 3559 1356 
Q 3559 666 3084 287 
Q 2609 -91 1734 -91 
Q 1441 -91 1130 -33 
Q 819 25 488 141 
L 488 750 
Q 750 597 1062 519 
Q 1375 441 1716 441 
Q 2309 441 2620 675 
Q 2931 909 2931 1356 
Q 2931 1769 2642 2001 
Q 2353 2234 1838 2234 
L 1294 2234 
L 1294 2753 
L 1863 2753 
Q 2328 2753 2575 2939 
Q 2822 3125 2822 3475 
Q 2822 3834 2567 4026 
Q 2313 4219 1838 4219 
Q 1578 4219 1281 4162 
Q 984 4106 628 3988 
L 628 4550 
Q 988 4650 1302 4700 
Q 1616 4750 1894 4750 
Q 2613 4750 3031 4423 
Q 3450 4097 3450 3541 
Q 3450 3153 3228 2886 
Q 3006 2619 2597 2516 
z
" transform="scale(0.015625)"/>
       <path id="DejaVuSans-4d" d="M 628 4666 
L 1569 4666 
L 2759 1491 
L 3956 4666 
L 4897 4666 
L 4897 0 
L 4281 0 
L 4281 4097 
L 3078 897 
L 2444 897 
L 1241 4097 
L 1241 0 
L 628 0 
L 628 4666 
z
" transform="scale(0.015625)"/>
       <path id="DejaVuSans-45" d="M 628 4666 
L 3578 4666 
L 3578 4134 
L 1259 4134 
L 1259 2753 
L 3481 2753 
L 3481 2222 
L 1259 2222 
L 1259 531 
L 3634 531 
L 3634 0 
L 628 0 
L 628 4666 
z
" transform="scale(0.015625)"/>
      </defs>
      <use xlink:href="#DejaVuSans-52"/>
      <use xlink:href="#DejaVuSans-41" x="65.482422"/>
      <use xlink:href="#DejaVuSans-50" x="133.890625"/>
      <use xlink:href="#DejaVuSans-31" x="194.193359"/>
      <use xlink:href="#DejaVuSans-5f" x="257.816406"/>
      <use xlink:href="#DejaVuSans-49" x="307.816406"/>
      <use xlink:href="#DejaVuSans-41" x="337.308594"/>
      <use xlink:href="#DejaVuSans-41" x="408.466797"/>
      <use xlink:href="#DejaVuSans-5f" x="476.875"/>
      <use xlink:href="#DejaVuSans-33" x="526.875"/>
      <use xlink:href="#DejaVuSans-30" x="590.498047"/>
      <use xlink:href="#DejaVuSans-4d" x="654.121094"/>
      <use xlink:href="#DejaVuSans-5f" x="740.400391"/>
      <use xlink:href="#DejaVuSans-52" x="790.400391"/>
      <use xlink:href="#DejaVuSans-45" x="859.882812"/>
      <use xlink:href="#DejaVuSans-50" x="923.066406"/>
      <use xlink:href="#DejaVuSans-31" x="983.369141"/>
     </g>
    </g>
    <g id="line2d_17">
     <path d="M 279.431875 315.455394 
L 287.431875 315.455394 
L 295.431875 315.455394 
" style="fill: none; stroke: #434348; stroke-linecap: square"/>
    </g>
    <g id="text_20">
     <!-- RAP1_UNINDUCED_REP1 -->
     <g transform="translate(301.831875 318.255394) scale(0.08 -0.08)">
      <defs>
       <path id="DejaVuSans-55" d="M 556 4666 
L 1191 4666 
L 1191 1831 
Q 1191 1081 1462 751 
Q 1734 422 2344 422 
Q 2950 422 3222 751 
Q 3494 1081 3494 1831 
L 3494 4666 
L 4128 4666 
L 4128 1753 
Q 4128 841 3676 375 
Q 3225 -91 2344 -91 
Q 1459 -91 1007 375 
Q 556 841 556 1753 
L 556 4666 
z
" transform="scale(0.015625)"/>
       <path id="DejaVuSans-4e" d="M 628 4666 
L 1478 4666 
L 3547 763 
L 3547 4666 
L 4159 4666 
L 4159 0 
L 3309 0 
L 1241 3903 
L 1241 0 
L 628 0 
L 628 4666 
z
" transform="scale(0.015625)"/>
       <path id="DejaVuSans-43" d="M 4122 4306 
L 4122 3641 
Q 3803 3938 3442 4084 
Q 3081 4231 2675 4231 
Q 1875 4231 1450 3742 
Q 1025 3253 1025 2328 
Q 1025 1406 1450 917 
Q 1875 428 2675 428 
Q 3081 428 3442 575 
Q 3803 722 4122 1019 
L 4122 359 
Q 3791 134 3420 21 
Q 3050 -91 2638 -91 
Q 1578 -91 968 557 
Q 359 1206 359 2328 
Q 359 3453 968 4101 
Q 1578 4750 2638 4750 
Q 3056 4750 3426 4639 
Q 3797 4528 4122 4306 
z
" transform="scale(0.015625)"/>
      </defs>
      <use xlink:href="#DejaVuSans-52"/>
      <use xlink:href="#DejaVuSans-41" x="65.482422"/>
      <use xlink:href="#DejaVuSans-50" x="133.890625"/>
      <use xlink:href="#DejaVuSans-31" x="194.193359"/>
      <use xlink:href="#DejaVuSans-5f" x="257.816406"/>
      <use xlink:href="#DejaVuSans-55" x="307.816406"/>
      <use xlink:href="#DejaVuSans-4e" x="381.009766"/>
      <use xlink:href="#DejaVuSans-49" x="455.814453"/>
      <use xlink:href="#DejaVuSans-4e" x="485.306641"/>
      <use xlink:href="#DejaVuSans-44" x="560.111328"/>
      <use xlink:href="#DejaVuSans-55" x="637.113281"/>
      <use xlink:href="#DejaVuSans-43" x="710.306641"/>
      <use xlink:href="#DejaVuSans-45" x="780.130859"/>
      <use xlink:href="#DejaVuSans-44" x="843.314453"/>
      <use xlink:href="#DejaVuSans-5f" x="920.316406"/>
      <use xlink:href="#DejaVuSans-52" x="970.316406"/>
      <use xlink:href="#DejaVuSans-45" x="1039.798828"/>
      <use xlink:href="#DejaVuSans-50" x="1102.982422"/>
      <use xlink:href="#DejaVuSans-31" x="1163.285156"/>
     </g>
    </g>
    <g id="line2d_18">
     <path d="M 515.276875 315.455394 
L 523.276875 315.455394 
L 531.276875 315.455394 
" style="fill: none; stroke: #90ed7d; stroke-linecap: square"/>
    </g>
    <g id="text_21">
     <!-- RAP1_UNINDUCED_REP2 -->
     <g transform="translate(537.676875 318.255394) scale(0.08 -0.08)">
      <use xlink:href="#DejaVuSans-52"/>
      <use xlink:href="#DejaVuSans-41" x="65.482422"/>
      <use xlink:href="#DejaVuSans-50" x="133.890625"/>
      <use xlink:href="#DejaVuSans-31" x="194.193359"/>
      <use xlink:href="#DejaVuSans-5f" x="257.816406"/>
      <use xlink:href="#DejaVuSans-55" x="307.816406"/>
      <use xlink:href="#DejaVuSans-4e" x="381.009766"/>
      <use xlink:href="#DejaVuSans-49" x="455.814453"/>
      <use xlink:href="#DejaVuSans-4e" x="485.306641"/>
      <use xlink:href="#DejaVuSans-44" x="560.111328"/>
      <use xlink:href="#DejaVuSans-55" x="637.113281"/>
      <use xlink:href="#DejaVuSans-43" x="710.306641"/>
      <use xlink:href="#DejaVuSans-45" x="780.130859"/>
      <use xlink:href="#DejaVuSans-44" x="843.314453"/>
      <use xlink:href="#DejaVuSans-5f" x="920.316406"/>
      <use xlink:href="#DejaVuSans-52" x="970.316406"/>
      <use xlink:href="#DejaVuSans-45" x="1039.798828"/>
      <use xlink:href="#DejaVuSans-50" x="1102.982422"/>
      <use xlink:href="#DejaVuSans-32" x="1163.285156"/>
     </g>
    </g>
    <g id="line2d_19">
     <path d="M 751.121875 315.455394 
L 759.121875 315.455394 
L 767.121875 315.455394 
" style="fill: none; stroke: #f7a35c; stroke-linecap: square"/>
    </g>
    <g id="text_22">
     <!-- WT_REP1 -->
     <g transform="translate(773.521875 318.255394) scale(0.08 -0.08)">
      <defs>
       <path id="DejaVuSans-57" d="M 213 4666 
L 850 4666 
L 1831 722 
L 2809 4666 
L 3519 4666 
L 4500 722 
L 5478 4666 
L 6119 4666 
L 4947 0 
L 4153 0 
L 3169 4050 
L 2175 0 
L 1381 0 
L 213 4666 
z
" transform="scale(0.015625)"/>
       <path id="DejaVuSans-54" d="M -19 4666 
L 3928 4666 
L 3928 4134 
L 2272 4134 
L 2272 0 
L 1638 0 
L 1638 4134 
L -19 4134 
L -19 4666 
z
" transform="scale(0.015625)"/>
      </defs>
      <use xlink:href="#DejaVuSans-57"/>
      <use xlink:href="#DejaVuSans-54" x="98.876953"/>
      <use xlink:href="#DejaVuSans-5f" x="159.960938"/>
      <use xlink:href="#DejaVuSans-52" x="209.960938"/>
      <use xlink:href="#DejaVuSans-45" x="279.443359"/>
      <use xlink:href="#DejaVuSans-50" x="342.626953"/>
      <use xlink:href="#DejaVuSans-31" x="402.929688"/>
     </g>
    </g>
    <g id="line2d_20">
     <path d="M 926.136875 315.455394 
L 934.136875 315.455394 
L 942.136875 315.455394 
" style="fill: none; stroke: #8085e9; stroke-linecap: square"/>
    </g>
    <g id="text_23">
     <!-- WT_REP2 -->
     <g transform="translate(948.536875 318.255394) scale(0.08 -0.08)">
      <use xlink:href="#DejaVuSans-57"/>
      <use xlink:href="#DejaVuSans-54" x="98.876953"/>
      <use xlink:href="#DejaVuSans-5f" x="159.960938"/>
      <use xlink:href="#DejaVuSans-52" x="209.960938"/>
      <use xlink:href="#DejaVuSans-45" x="279.443359"/>
      <use xlink:href="#DejaVuSans-50" x="342.626953"/>
      <use xlink:href="#DejaVuSans-32" x="402.929688"/>
     </g>
    </g>
   </g>
  </g>
 </g>
 <defs>
  <clipPath id="p346c1f4858">
   <rect x="50.780625" y="31.48286" width="942.28" height="242.5072"/>
  </clipPath>
 </defs>
</svg>
